<?xml version="1.0" encoding="utf-8"?><svg xmlns="http://www.w3.org/2000/svg" xmlns:xlink="http://www.w3.org/1999/xlink"><symbol viewBox="0 0 12 12" id="icon-cancel" xmlns="http://www.w3.org/2000/svg"><path fill-rule="evenodd" clip-rule="evenodd" d="M9.536 1.05a1 1 0 111.414 1.414L7.414 6l3.536 3.536a1 1 0 11-1.414 1.414L6 7.414 2.464 10.95A1 1 0 011.05 9.536L4.586 6 1.05 2.464A1 1 0 112.464 1.05L6 4.586 9.536 1.05z"/></symbol><symbol viewBox="0 0 13 10" id="icon-confirm" xmlns="http://www.w3.org/2000/svg"><path fill-rule="evenodd" clip-rule="evenodd" d="M12 1.022a1 1 0 01-.001 1.414l-6.53 6.53a1 1 0 01-1.384.03L.825 6.01a1 1 0 111.352-1.474l2.201 2.017a.5.5 0 00.692-.015l5.515-5.515a1 1 0 011.414 0z"/></symbol></svg>